<svg width="295" height="64" viewBox="0 0 295 64" fill="none" xmlns="http://www.w3.org/2000/svg">
<g opacity="0.5">
<mask id="path-1-inside-1_104_202" fill="white">
<path d="M275.638 0C275.638 9.14111 284.09 16.5516 294.517 16.5518L294.518 16.5508V47.4482H294.517C284.09 47.4484 275.638 54.8589 275.638 64H15.1035C15.1035 55.9924 8.61738 49.3129 0 47.7793V16.2207C8.46382 14.7144 14.872 8.24393 15.0977 0.426758L15.1035 0H275.638Z"/>
</mask>
<path d="M275.638 0C275.638 9.14111 284.09 16.5516 294.517 16.5518L294.518 16.5508V47.4482H294.517C284.09 47.4484 275.638 54.8589 275.638 64H15.1035C15.1035 55.9924 8.61738 49.3129 0 47.7793V16.2207C8.46382 14.7144 14.872 8.24393 15.0977 0.426758L15.1035 0H275.638Z" fill="#C64CF1" fill-opacity="0.16"/>
<path d="M275.638 0L276.909 -6.37792e-06L276.909 -1.27137H275.638V0ZM294.517 16.5518L294.517 17.8231L295.043 17.8231L295.416 17.4507L294.517 16.5518ZM294.518 16.5508H295.789V13.4814L293.619 15.6518L294.518 16.5508ZM294.518 47.4482V48.7196H295.789V47.4482H294.518ZM294.517 47.4482L294.517 46.1769L294.517 46.1769L294.517 47.4482ZM275.638 64V65.2714H276.909V64H275.638ZM15.1035 64H13.8321V65.2714H15.1035V64ZM0 47.7793H-1.27137V48.8444L-0.222762 49.031L0 47.7793ZM0 16.2207L-0.222761 14.969L-1.27137 15.1556L-1.27137 16.2207H0ZM15.0977 0.426758L16.3685 0.463449L16.3688 0.453832L16.3689 0.444212L15.0977 0.426758ZM15.1035 0V-1.27137H13.8495L13.8323 -0.0174542L15.1035 0ZM275.638 0L274.366 6.37792e-06C274.366 9.99524 283.55 17.8229 294.517 17.8231L294.517 16.5518L294.517 15.2804C284.63 15.2802 276.909 8.28698 276.909 -6.37792e-06L275.638 0ZM294.517 16.5518L295.416 17.4507L295.417 17.4498L294.518 16.5508L293.619 15.6518L293.618 15.6528L294.517 16.5518ZM294.518 16.5508H293.246V47.4482H294.518H295.789V16.5508H294.518ZM294.518 47.4482V46.1769H294.517V47.4482V48.7196H294.518V47.4482ZM294.517 47.4482L294.517 46.1769C283.55 46.1771 274.366 54.0047 274.366 64H275.638H276.909C276.909 55.713 284.63 48.7198 294.517 48.7196L294.517 47.4482ZM275.638 64V62.7286H15.1035V64V65.2714H275.638V64ZM15.1035 64H16.3749C16.3749 55.2512 9.31483 48.1457 0.222762 46.5276L0 47.7793L-0.222762 49.031C7.91992 50.4801 13.8321 56.7337 13.8321 64H15.1035ZM0 47.7793H1.27137V16.2207H0H-1.27137V47.7793H0ZM0 16.2207L0.222761 17.4724C9.15442 15.8829 16.122 9.00144 16.3685 0.463449L15.0977 0.426758L13.8268 0.390067C13.6219 7.48643 7.77322 13.546 -0.222761 14.969L0 16.2207ZM15.0977 0.426758L16.3689 0.444212L16.3748 0.0174542L15.1035 0L13.8323 -0.0174542L13.8264 0.409304L15.0977 0.426758ZM15.1035 0V1.27137H275.638V0V-1.27137H15.1035V0Z" fill="#AA73F0" mask="url(#path-1-inside-1_104_202)"/>
<path d="M55.8806 7.3783V58.3524" stroke="#AA73F0" stroke-width="1.25862" stroke-dasharray="6.29 6.29"/>
</g>
</svg>
