<svg width="71" height="70" viewBox="0 0 71 70" fill="none" xmlns="http://www.w3.org/2000/svg">
<rect x="0.5" width="70" height="70" rx="30" fill="white" fill-opacity="0.33"/>
<path d="M47.2399 41.379C46.7863 42.4272 46.2493 43.3918 45.6269 44.279C44.7789 45.4882 44.0845 46.3251 43.5493 46.7901C42.7197 47.553 41.8308 47.9436 40.879 47.9659C40.1957 47.9659 39.3717 47.7715 38.4124 47.3771C37.4501 46.9844 36.5656 46.7901 35.757 46.7901C34.9089 46.7901 33.9993 46.9844 33.0263 47.3771C32.0519 47.7715 31.2669 47.977 30.6668 47.9975C29.754 48.0361 28.8442 47.6343 27.9361 46.7901C27.3565 46.2844 26.6315 45.4177 25.763 44.1901C24.8312 42.879 24.0651 41.3587 23.465 39.6254C22.8222 37.7532 22.5 35.9403 22.5 34.1852C22.5 32.1747 22.9344 30.4407 23.8046 28.9876C24.4885 27.8204 25.3982 26.8997 26.5369 26.2238C27.6756 25.5479 28.9059 25.2035 30.2309 25.1814C30.9558 25.1814 31.9065 25.4057 33.088 25.8464C34.2661 26.2886 35.0225 26.5129 35.3542 26.5129C35.6021 26.5129 36.4425 26.2507 37.8671 25.7279C39.2143 25.2431 40.3513 25.0424 41.2827 25.1214C43.8067 25.3251 45.703 26.3201 46.9639 28.1126C44.7067 29.4804 43.59 31.396 43.6123 33.8535C43.6326 35.7677 44.3271 37.3607 45.6919 38.6254C46.3102 39.2125 47.0011 39.6661 47.7695 39.9884C47.603 40.4717 47.4269 40.9346 47.2399 41.379ZM41.4512 18.6002C41.4512 20.1005 40.9031 21.5014 39.8105 22.798C38.4921 24.3394 36.8973 25.2301 35.1679 25.0896C35.1459 24.9096 35.1331 24.7202 35.1331 24.5211C35.1331 23.0808 35.7601 21.5393 36.8736 20.279C37.4295 19.6409 38.1365 19.1103 38.9939 18.687C39.8494 18.2701 40.6587 18.0395 41.4197 18C41.442 18.2006 41.4512 18.4012 41.4512 18.6001V18.6002Z" fill="white"/>
</svg>
