<svg width="19" height="20" viewBox="0 0 19 20" fill="none" xmlns="http://www.w3.org/2000/svg">
<path d="M13.1529 7.67806L10.831 9.99997L13.1529 12.3219C13.2203 12.3869 13.274 12.4647 13.311 12.5507C13.348 12.6367 13.3675 12.7292 13.3683 12.8228C13.3692 12.9164 13.3514 13.0092 13.316 13.0959C13.2806 13.1826 13.2283 13.2614 13.1621 13.3276C13.096 13.3938 13.0172 13.4462 12.9306 13.4817C12.844 13.5172 12.7512 13.535 12.6575 13.5343C12.5639 13.5335 12.4714 13.5141 12.3854 13.4772C12.2993 13.4403 12.2215 13.3866 12.1564 13.3193L9.83451 10.9974L7.51259 13.3193C7.37956 13.4477 7.20138 13.5186 7.01651 13.5169C6.83165 13.5152 6.65488 13.441 6.52422 13.3103C6.39356 13.1795 6.31947 13.0026 6.31796 12.8177C6.31644 12.6329 6.38758 12.4548 6.51608 12.3219L8.83805 9.99997L6.51608 7.67806C6.38381 7.54579 6.30952 7.36639 6.30952 7.17934C6.30952 6.99229 6.38381 6.81289 6.51608 6.68062C6.64834 6.54836 6.82774 6.47407 7.01479 6.47407C7.20184 6.47407 7.38125 6.54836 7.51351 6.68062L9.83543 9.0026L12.1574 6.68062C12.222 6.61142 12.2999 6.55595 12.3864 6.5175C12.4729 6.47905 12.5663 6.45838 12.661 6.4568C12.7557 6.45522 12.8497 6.47272 12.9374 6.50827C13.0252 6.54381 13.1049 6.59669 13.1718 6.6637C13.2386 6.73071 13.2914 6.81049 13.3267 6.89831C13.3621 6.98613 13.3794 7.0802 13.3777 7.17487C13.3759 7.26953 13.3551 7.36285 13.3165 7.4493C13.2778 7.53575 13.2223 7.61358 13.1529 7.67806ZM19.0001 7.1798V12.8201C18.9981 14.5024 18.3289 16.1153 17.1393 17.3048C15.9498 18.4944 14.337 19.1635 12.6547 19.1655H7.01433C5.33204 19.1635 3.71923 18.4944 2.52967 17.3048C1.34011 16.1153 0.670936 14.5024 0.668945 12.8201V7.1798C0.670936 5.49751 1.34011 3.88469 2.52967 2.69513C3.71923 1.50557 5.33204 0.836402 7.01433 0.834412H12.6547C14.337 0.836402 15.9498 1.50557 17.1393 2.69513C18.3289 3.88469 18.9981 5.49751 19.0001 7.1798ZM17.59 7.1798C17.5885 5.87134 17.0681 4.61687 16.1428 3.69165C15.2176 2.76642 13.9631 2.24599 12.6547 2.2445H7.01433C5.70587 2.24599 4.45141 2.76642 3.52618 3.69165C2.60096 4.61687 2.08052 5.87134 2.07903 7.1798V12.8201C2.08052 14.1286 2.60096 15.3831 3.52618 16.3083C4.45141 17.2335 5.70587 17.754 7.01433 17.7554H12.6547C13.9631 17.754 15.2176 17.2335 16.1428 16.3083C17.0681 15.3831 17.5885 14.1286 17.59 12.8201V7.1798Z" fill="#AA73F0"/>
</svg>
