<svg width="23" height="22" viewBox="0 0 23 22" fill="none" xmlns="http://www.w3.org/2000/svg">
<path d="M11.7319 19.3633C11.4429 20.079 10.6378 20.8496 9.60431 20.562C8.79236 20.3363 8.26528 19.8464 7.96251 19.1913C7.68177 18.5816 7.61296 17.8632 7.5992 17.1793C7.58543 16.443 7.73957 15.5608 7.91985 14.7874C8.00035 14.4456 8.08983 14.106 8.18821 13.769H6.28217C5.85453 13.7689 5.43277 13.6693 5.05036 13.4778C4.66794 13.2864 4.33539 13.0085 4.07909 12.6662C3.82278 12.3239 3.64976 11.9265 3.57376 11.5057C3.49776 11.0848 3.52087 10.6521 3.64125 10.2417L5.51838 3.84778C5.64717 3.40902 5.86213 3.00032 6.15069 2.64559C6.43926 2.29086 6.79564 1.99722 7.199 1.78182C7.60237 1.56643 8.04462 1.4336 8.49991 1.39111C8.95521 1.34862 9.4144 1.39732 9.85065 1.53435L17.812 3.84778C18.2107 3.97304 18.5757 4.18747 18.8793 4.4748C19.1828 4.76214 19.4169 5.11483 19.5639 5.50613L19.7073 6.89583C19.7264 7.75567 19.9236 8.68545 19.7081 9.2961C19.4926 9.90675 19.0688 10.4219 18.5111 10.7509L15.9348 12.2703C15.6752 12.4756 15.4344 12.7036 15.2151 12.9515C14.7417 13.4868 14.0907 14.3773 13.437 15.7659C13.1549 16.3659 12.9182 16.8379 12.7035 17.266C12.3553 17.9582 12.0636 18.5376 11.7319 19.3633ZM15.1944 11.1101C15.2021 11.1054 15.2099 11.1008 15.2178 11.0963L17.812 9.56599C18.0908 9.40147 18.3027 9.14391 18.4105 8.83858C18.5182 8.53325 18.401 7.80017 18.4105 7.31574C18.42 6.83131 18.2757 5.99056 18.2757 5.99056C18.2023 5.79471 18.0852 5.61818 17.9333 5.47438C17.7814 5.33059 17.5987 5.22331 17.3991 5.1607L9.44055 2.84727C9.17874 2.76478 8.90312 2.73533 8.6298 2.76064C8.35648 2.78596 8.09095 2.86554 7.84875 2.99471C7.60655 3.12388 7.39255 3.30007 7.21926 3.51295C7.04597 3.72583 6.91688 3.97113 6.83953 4.2345L4.96378 10.6284C4.90344 10.8337 4.8918 11.0502 4.92977 11.2608C4.96775 11.4714 5.0543 11.6702 5.18254 11.8414C5.31079 12.0127 5.4772 12.1517 5.66857 12.2474C5.85993 12.3431 6.07097 12.3929 6.28493 12.3927H9.12815C9.23824 12.3928 9.34671 12.4193 9.44445 12.47C9.54218 12.5206 9.62634 12.594 9.68984 12.6839C9.75334 12.7739 9.79434 12.8777 9.80939 12.9868C9.82444 13.0958 9.81311 13.2069 9.77634 13.3107C9.63872 13.6988 9.42954 14.3718 9.25889 15.1025C9.08549 15.8429 8.96301 16.5916 8.97402 17.1531C8.98778 17.7972 9.05521 18.2761 9.2121 18.6147C9.34697 18.9105 9.55752 19.1211 9.97176 19.2367C10.0309 19.2532 10.1011 19.2477 10.1919 19.1885C10.3105 19.1039 10.4015 18.9861 10.4534 18.85C10.7704 18.0773 11.1217 17.3192 11.5062 16.5778C11.7195 16.1526 11.9438 15.7053 12.1902 15.181C12.8976 13.6754 13.6214 12.6735 14.1857 12.0391C14.4664 11.7225 14.7059 11.4982 14.882 11.3482C14.9715 11.2721 15.0643 11.2001 15.16 11.1321L15.182 11.1184L15.1889 11.1129L15.1944 11.1101Z" fill="white"/>
</svg>
