<svg width="24" height="24" viewBox="0 0 24 24" fill="none" xmlns="http://www.w3.org/2000/svg">
<path d="M18 6.60015C17.8409 6.60015 17.6882 6.53693 17.5757 6.42441C17.4632 6.31189 17.4 6.15928 17.4 6.00015V3.30015C17.4 3.06145 17.3052 2.83253 17.1364 2.66375C16.9676 2.49497 16.7387 2.40015 16.5 2.40015C16.2613 2.40015 16.0324 2.49497 15.8636 2.66375C15.6948 2.83253 15.6 3.06145 15.6 3.30015V6.00015C15.6 6.63667 15.8528 7.24711 16.3029 7.6972C16.753 8.14729 17.3635 8.40015 18 8.40015H20.7C20.9387 8.40015 21.1676 8.30532 21.3364 8.13654C21.5052 7.96776 21.6 7.73884 21.6 7.50015C21.6 7.26145 21.5052 7.03253 21.3364 6.86375C21.1676 6.69497 20.9387 6.60015 20.7 6.60015H18ZM6.59999 18.0001C6.59999 17.841 6.53678 17.6884 6.42426 17.5759C6.31174 17.4634 6.15912 17.4001 5.99999 17.4001H3.29999C3.0613 17.4001 2.83238 17.3053 2.6636 17.1365C2.49481 16.9678 2.39999 16.7388 2.39999 16.5001C2.39999 16.2614 2.49481 16.0325 2.6636 15.8637C2.83238 15.695 3.0613 15.6001 3.29999 15.6001H5.99999C6.63651 15.6001 7.24696 15.853 7.69705 16.3031C8.14714 16.7532 8.39999 17.3636 8.39999 18.0001V20.7001C8.39999 20.9388 8.30517 21.1678 8.13639 21.3365C7.96761 21.5053 7.73869 21.6001 7.49999 21.6001C7.2613 21.6001 7.03238 21.5053 6.8636 21.3365C6.69481 21.1678 6.59999 20.9388 6.59999 20.7001V18.0001ZM17.4 18.0001C17.4 17.841 17.4632 17.6884 17.5757 17.5759C17.6882 17.4634 17.8409 17.4001 18 17.4001H20.7C20.9387 17.4001 21.1676 17.3053 21.3364 17.1365C21.5052 16.9678 21.6 16.7388 21.6 16.5001C21.6 16.2614 21.5052 16.0325 21.3364 15.8637C21.1676 15.695 20.9387 15.6001 20.7 15.6001H18C17.3635 15.6001 16.753 15.853 16.3029 16.3031C15.8528 16.7532 15.6 17.3636 15.6 18.0001V20.7001C15.6 20.9388 15.6948 21.1678 15.8636 21.3365C16.0324 21.5053 16.2613 21.6001 16.5 21.6001C16.7387 21.6001 16.9676 21.5053 17.1364 21.3365C17.3052 21.1678 17.4 20.9388 17.4 20.7001V18.0001ZM6.59999 6.00015C6.59999 6.15928 6.53678 6.31189 6.42426 6.42441C6.31174 6.53693 6.15912 6.60015 5.99999 6.60015H3.29999C3.0613 6.60015 2.83238 6.69497 2.6636 6.86375C2.49481 7.03253 2.39999 7.26145 2.39999 7.50015C2.39999 7.73884 2.49481 7.96776 2.6636 8.13654C2.83238 8.30532 3.0613 8.40015 3.29999 8.40015H5.99999C6.63651 8.40015 7.24696 8.14729 7.69705 7.6972C8.14714 7.24711 8.39999 6.63667 8.39999 6.00015V3.30015C8.39999 3.06145 8.30517 2.83253 8.13639 2.66375C7.96761 2.49497 7.73869 2.40015 7.49999 2.40015C7.2613 2.40015 7.03238 2.49497 6.8636 2.66375C6.69481 2.83253 6.59999 3.06145 6.59999 3.30015V6.00015Z" fill="white"/>
</svg>
