<svg width="25" height="24" viewBox="0 0 25 24" fill="none" xmlns="http://www.w3.org/2000/svg">
<path d="M16.2197 6.10681C16.6472 6.14928 17.0491 6.33849 17.3555 6.6449L17.4795 6.78162C17.7518 7.11392 17.9023 7.53184 17.9023 7.96521C17.9023 8.46044 17.7056 8.93534 17.3555 9.28552C17.0053 9.6357 16.5304 9.83236 16.0352 9.8324C15.6018 9.8324 15.1839 9.68182 14.8516 9.40955L14.7148 9.28552C14.3647 8.93534 14.168 8.46044 14.168 7.96521C14.168 7.46993 14.3646 6.99511 14.7148 6.6449L14.8516 6.52087C15.1839 6.24853 15.6017 6.09802 16.0352 6.09802L16.2197 6.10681Z" fill="#DEDEDE" stroke="#DEDEDE" stroke-width="0.2"/>
<path d="M12.5508 1.90039C14.5884 1.90039 16.1953 1.89936 17.4512 2.06836H17.4502C18.7372 2.24126 19.7695 2.60563 20.582 3.41699H20.583L20.7295 3.57227C21.4397 4.35991 21.7695 5.34234 21.9316 6.5498L21.9873 7.03711C22.1005 8.21327 22.0996 9.66614 22.0996 11.4492V11.5273C22.0996 13.0024 22.0999 14.2474 22.0381 15.292L22.0078 15.7266C21.9271 16.7206 21.7714 17.5795 21.4443 18.3164L21.2939 18.625C21.1038 18.9791 20.8683 19.2977 20.583 19.583C19.8719 20.2941 18.9925 20.661 17.9209 20.8574L17.4502 20.9316C16.1952 21.1006 14.5884 21.0996 12.5508 21.0996H12.4492C10.4116 21.0996 8.80475 21.1006 7.54883 20.9316V20.9307C6.26212 20.7577 5.23037 20.3943 4.41797 19.583H4.41699C3.78709 18.9531 3.42621 18.1897 3.21582 17.2744L3.13477 16.873C2.99094 16.0683 2.93567 15.1181 2.91406 14.001L2.90137 12.8281C2.8996 12.4099 2.90039 11.9675 2.90039 11.501V11.4492C2.90039 9.41159 2.89936 7.80475 3.06836 6.54883C3.24129 5.26206 3.60572 4.23039 4.41699 3.41797V3.41699L4.57227 3.27051C5.35991 2.56035 6.34234 2.23051 7.5498 2.06836L8.03711 2.0127C9.21327 1.89949 10.6661 1.90039 12.4492 1.90039H12.5508ZM12.5 3.42578C10.659 3.42578 9.27866 3.42668 8.19824 3.5293L7.75293 3.58008C6.77439 3.71177 6.14894 3.94622 5.68555 4.3252L5.49609 4.49609C5.0742 4.91798 4.80429 5.47335 4.64258 6.35547L4.58008 6.75391C4.42746 7.89452 4.42578 9.39592 4.42578 11.5V12.0254L5.14453 11.3955L5.30273 11.2695C5.68382 10.9953 6.14711 10.8533 6.62012 10.8691C7.16073 10.8873 7.67421 11.1106 8.05664 11.4932L11.8477 15.2842L11.9561 15.3828C12.2175 15.6019 12.5407 15.737 12.8828 15.7666L13.0293 15.7725C13.3704 15.7719 13.7043 15.6662 13.9854 15.4688L14.249 15.2832L14.4443 15.1582C14.9122 14.8853 15.452 14.7553 15.9961 14.7881L16.2275 14.8125C16.7634 14.8906 17.2659 15.1256 17.6709 15.4902L20.0684 17.6475C20.2803 17.1503 20.4143 16.5026 20.4873 15.6035L20.5156 15.1934C20.5735 14.2067 20.5742 13.0059 20.5742 11.5C20.5742 9.65851 20.5734 8.27862 20.4707 7.19824L20.4199 6.75391C20.2695 5.63523 19.9849 4.97817 19.5039 4.49609L19.3145 4.32422C18.9168 3.99942 18.4008 3.7812 17.6445 3.64258L17.2461 3.58008C16.1055 3.42745 14.6041 3.42578 12.5 3.42578Z" fill="#DEDEDE" stroke="#DEDEDE" stroke-width="0.2"/>
</svg>
