<svg width="71" height="70" viewBox="0 0 71 70" fill="none" xmlns="http://www.w3.org/2000/svg">
<rect x="0.5" width="70" height="70" rx="30" fill="#BC4CF1" fill-opacity="0.2"/>
<path d="M27.1486 38.129L26.1044 42.0273L22.2876 42.108C21.147 39.9924 20.5 37.5719 20.5 34.9996C20.5 32.5123 21.1049 30.1667 22.1772 28.1013H22.178L25.576 28.7243L27.0645 32.1018C26.7529 33.0101 26.5831 33.9851 26.5831 34.9996C26.5833 36.1007 26.7827 37.1557 27.1486 38.129Z" fill="#FBBB00"/>
<path d="M50.2382 32.1979C50.4105 33.1053 50.5003 34.0423 50.5003 35C50.5003 36.0739 50.3874 37.1215 50.1723 38.1319C49.4421 41.5703 47.5341 44.5728 44.891 46.6975L44.8902 46.6966L40.6103 46.4783L40.0045 42.697C41.7584 41.6684 43.129 40.0588 43.851 38.1319H35.8301V32.1979H43.968H50.2382Z" fill="#518EF8"/>
<path d="M44.8898 46.6967L44.8906 46.6975C42.32 48.7637 39.0546 50 35.4999 50C29.7876 50 24.8211 46.8072 22.2876 42.1086L27.1486 38.1295C28.4153 41.5102 31.6766 43.9168 35.4999 43.9168C37.1433 43.9168 38.6829 43.4726 40.004 42.697L44.8898 46.6967Z" fill="#28B446"/>
<path d="M45.0745 23.4532L40.2151 27.4315C38.8479 26.5769 37.2316 26.0831 35.5 26.0831C31.5901 26.0831 28.2679 28.6001 27.0646 32.1021L22.1781 28.1016H22.1772C24.6737 23.2884 29.7028 20 35.5 20C39.1396 20 42.4767 21.2964 45.0745 23.4532Z" fill="#F14336"/>
</svg>
