<svg width="23" height="22" viewBox="0 0 23 22" fill="none" xmlns="http://www.w3.org/2000/svg">
<path d="M10.8875 2.66859C11.1763 1.95359 11.9806 1.18359 13.0133 1.47096C13.8245 1.69646 14.3511 2.18596 14.6536 2.84046C14.9341 3.44959 15.0029 4.16734 15.0166 4.85071C15.0304 5.58634 14.8764 6.46771 14.6963 7.24046C14.6158 7.58192 14.5264 7.92121 14.4281 8.25796H16.3325C16.7598 8.25799 17.1812 8.35757 17.5633 8.54882C17.9453 8.74007 18.2776 9.01772 18.5337 9.35975C18.7898 9.70177 18.9626 10.0988 19.0386 10.5192C19.1145 10.9397 19.0914 11.3721 18.9711 11.7821L17.0956 18.1703C16.967 18.6087 16.7522 19.017 16.4639 19.3715C16.1756 19.7259 15.8195 20.0193 15.4165 20.2345C15.0135 20.4497 14.5716 20.5824 14.1167 20.6248C13.6618 20.6673 13.203 20.6186 12.7671 20.4817L4.81277 18.1703C4.41436 18.0452 4.04968 17.831 3.7464 17.5439C3.44312 17.2568 3.2092 16.9044 3.06239 16.5135L2.91907 15.125C2.90001 14.2659 2.703 13.337 2.91827 12.7269C3.13354 12.1167 3.55703 11.6021 4.11427 11.2733L6.68827 9.75534C6.94765 9.55019 7.1883 9.32242 7.40739 9.07471C7.88039 8.53983 8.53077 7.65021 9.1839 6.26284C9.46577 5.66334 9.70227 5.19171 9.91677 4.76409C10.2646 4.07246 10.5561 3.49359 10.8875 2.66859ZM7.42802 10.9145C7.42032 10.9192 7.41252 10.9238 7.40464 10.9282L4.81277 12.4572C4.53415 12.6216 4.32241 12.8789 4.21477 13.184C4.10713 13.489 4.22427 14.2215 4.21477 14.7055C4.20527 15.1895 4.3494 16.0295 4.3494 16.0295C4.42278 16.2251 4.5398 16.4015 4.69157 16.5452C4.84334 16.6888 5.02587 16.796 5.22527 16.8586L13.1769 19.17C13.4385 19.2524 13.7139 19.2818 13.9869 19.2565C14.26 19.2312 14.5253 19.1517 14.7673 19.0226C15.0093 18.8936 15.2231 18.7176 15.3962 18.5049C15.5694 18.2922 15.6984 18.0471 15.7756 17.784L17.6498 11.3957C17.7101 11.1906 17.7217 10.9743 17.6837 10.7639C17.6458 10.5535 17.5593 10.3549 17.4312 10.1838C17.3031 10.0127 17.1368 9.87379 16.9456 9.77817C16.7544 9.68256 16.5435 9.63284 16.3298 9.63296H13.489C13.379 9.6329 13.2707 9.60644 13.173 9.55582C13.0753 9.5052 12.9913 9.43188 12.9278 9.34203C12.8644 9.25218 12.8234 9.14842 12.8084 9.03945C12.7933 8.93049 12.8047 8.81951 12.8414 8.71584C12.9789 8.32809 13.1879 7.65571 13.3584 6.92559C13.5316 6.18584 13.654 5.43784 13.643 4.87684C13.6293 4.23334 13.5619 3.75484 13.4051 3.41659C13.2704 3.12096 13.06 2.91059 12.6461 2.79509C12.587 2.77859 12.5169 2.78409 12.4261 2.84321C12.3077 2.9278 12.2168 3.04546 12.1649 3.18146C11.8482 3.95342 11.4972 4.71088 11.113 5.45159C10.8999 5.87646 10.6758 6.32334 10.4296 6.84721C9.72289 8.35146 8.99965 9.35246 8.43589 9.98633C8.15539 10.3026 7.91614 10.5267 7.74014 10.6766C7.65076 10.7526 7.55808 10.8246 7.46239 10.8925L7.44039 10.9062L7.43352 10.9117L7.42802 10.9145Z" fill="white"/>
</svg>
