<svg width="22" height="22" viewBox="0 0 22 22" fill="none" xmlns="http://www.w3.org/2000/svg">
<path d="M19.3906 2.60737C19.07 2.28358 18.6703 2.0493 18.2311 1.92776C17.7919 1.80622 17.3286 1.80169 16.8871 1.91456L4.55944 4.9962C3.77641 5.19235 3.08198 5.64581 2.58758 6.28392C2.09318 6.92202 1.82746 7.70776 1.8331 8.51496C1.83873 9.32216 2.11542 10.1041 2.61868 10.7352C3.12195 11.3664 3.82263 11.8101 4.60833 11.9953L8.97608 13.0228L10.0036 17.3906C10.1797 18.1807 10.6207 18.8869 11.2534 19.3919C11.8861 19.8968 12.6725 20.1702 13.4821 20.1667H13.5093C14.3143 20.176 15.0985 19.9111 15.733 19.4156C16.3675 18.9202 16.8147 18.2236 17.0009 17.4404L20.0826 5.1128C20.1955 4.6711 20.1911 4.2075 20.0697 3.76804C19.9483 3.32859 19.7142 2.92849 19.3906 2.60737ZM18.7156 4.76967L15.634 17.0973C15.5197 17.5764 15.2451 18.0023 14.8558 18.3042C14.4666 18.6061 13.9859 18.766 13.4933 18.7575C12.9992 18.7635 12.5183 18.5983 12.1323 18.2898C11.7463 17.9813 11.4791 17.5486 11.3762 17.0654L10.3421 12.6562L14.3206 8.67769C14.3861 8.6122 14.4381 8.53443 14.4735 8.44886C14.509 8.36329 14.5272 8.27157 14.5272 8.17894C14.5272 8.08632 14.509 7.9946 14.4735 7.90903C14.4381 7.82346 14.3861 7.74569 14.3206 7.6802C14.2551 7.6147 14.1773 7.56278 14.0918 7.52734C14.0062 7.49189 13.9145 7.47363 13.8219 7.47363C13.7292 7.47363 13.6375 7.49189 13.5519 7.52734C13.4664 7.56278 13.3887 7.6147 13.3232 7.6802L9.34463 11.6588L4.93551 10.6246C4.45724 10.5122 4.03063 10.2424 3.72422 9.85834C3.41781 9.47431 3.24938 8.99854 3.24602 8.50727C3.24265 8.016 3.40456 7.53785 3.70569 7.14966C4.00681 6.76148 4.42968 6.48578 4.90636 6.36689L17.2331 3.28514C17.3317 3.26022 17.4331 3.24767 17.5348 3.24761C17.721 3.24761 17.9046 3.29013 18.0718 3.37189C18.239 3.45366 18.3853 3.57248 18.4996 3.71939C18.6138 3.86629 18.693 4.03734 18.7311 4.21951C18.7692 4.40168 18.7652 4.5902 18.7194 4.77058L18.7156 4.76967Z" fill="white"/>
</svg>
